<svg width="60" height="52" viewBox="0 0 60 52" fill="none" xmlns="http://www.w3.org/2000/svg">
<path d="M20.3232 3.13428C21.3155 0.707532 23.981 -0.269706 26.4453 0.313965C28.144 0.716572 29.1541 1.83151 30.0225 3.17041C30.8741 1.09067 32.8531 0.134043 34.8164 0.160645C36.8615 0.188507 38.9252 1.2835 39.7129 3.32178C40.0629 4.22769 40.179 5.75915 40.2109 7.28662C40.2429 8.8179 40.1905 10.3883 40.1914 11.3608L40.1934 18.9028C40.1933 19.0552 40.1891 19.2982 40.1855 19.5815C40.182 19.8658 40.1785 20.1924 40.1787 20.5142C40.1789 20.8363 40.1832 21.1531 40.1943 21.4165C40.2029 21.6193 40.215 21.7824 40.2314 21.8921C40.262 21.887 40.3061 21.8718 40.3672 21.8354C40.4792 21.7688 40.6086 21.6553 40.7441 21.5181C40.8783 21.3822 41.0112 21.2305 41.1318 21.0923C41.2494 20.9576 41.3604 20.8294 41.4434 20.7515C44.3612 18.0107 47.4915 14.5424 50.7041 12.1538C52.8143 10.5849 55.4995 10.6451 57.3203 11.7837C58.2323 12.354 58.9322 13.1975 59.2285 14.2466C59.5251 15.2968 59.4133 16.5378 58.7324 17.8931C58.2583 18.8365 57.2374 19.8801 56.1895 20.8823C55.1301 21.8954 54.0397 22.8692 53.3838 23.6929L53.3828 23.6948C52.9048 24.2771 52.4117 24.846 51.9209 25.4136C51.4315 25.9796 50.9437 26.5443 50.4717 27.1226C50.1354 27.6508 49.7696 28.1629 49.4043 28.6743C49.0365 29.1892 48.6695 29.7044 48.3271 30.2417C47.1529 32.085 46.2119 33.9407 45.1982 35.8784C44.4787 37.2539 43.8524 38.7013 43.1787 40.1362C42.5068 41.5673 41.7902 42.9796 40.8965 44.2651C38.5059 47.7037 34.5257 50.5493 30.3301 51.1987C28.0926 51.545 24.9314 51.4518 22.6143 51.4263H22.6113C21.1103 51.3785 19.549 51.4511 17.9707 51.4487C16.4006 51.4463 14.8291 51.3691 13.3477 51.0171C6.8801 49.4799 1.47264 43.4091 0.416016 36.8911C0.0889547 34.8727 0.168255 32.6566 0.167969 30.6499V30.6489L0.189453 21.6216L0.170898 10.9917C0.167151 8.9971 0.0934081 6.94915 0.245117 4.94971C0.356353 3.48515 0.903285 2.38686 1.77051 1.604C2.63454 0.82404 3.80414 0.368091 5.14355 0.160645L5.15527 0.158691H5.16602C6.69245 0.151355 7.67298 0.385881 8.48535 0.92041C9.23524 1.41384 9.82785 2.15713 10.5781 3.15381C11.2654 1.41629 12.9032 0.422045 14.6436 0.206543C16.4685 -0.0193256 18.4376 0.605626 19.584 2.15771C19.8307 2.49181 20.0704 2.81411 20.3232 3.13428ZM57.3193 12.686C56.135 11.7126 55.0065 11.7302 53.5479 11.8218C50.6524 12.5711 49.3314 14.2701 47.1885 16.3325L47.1895 16.3335L42.043 21.2935C41.3117 22.0048 40.7966 22.5309 40.3818 22.9175C39.9649 23.3061 39.6351 23.5679 39.2666 23.7524C38.8973 23.9374 38.4981 24.0392 37.9492 24.1235C37.4029 24.2075 36.6937 24.2757 35.7051 24.3862C30.8924 24.9245 25.6286 27.7261 23.2539 32.0327L23.2529 32.0356L23.123 31.9604L23.252 32.0356C23.1573 32.1969 23.0445 32.4512 22.9189 32.7524C22.7928 33.0553 22.6618 33.3867 22.5264 33.7153C22.3931 34.0388 22.2583 34.3522 22.1309 34.5972C22.0673 34.7193 22.0031 34.8281 21.9404 34.9146C21.881 34.9964 21.8093 35.0772 21.7246 35.1177L21.5586 35.1978L21.5146 35.0181C21.4586 34.7887 21.4886 34.4899 21.5586 34.1772C21.6297 33.8596 21.7468 33.5072 21.8818 33.1597C22.1519 32.4646 22.4997 31.7746 22.7197 31.3989C24.902 27.6727 28.9661 25.1209 33.1006 24.1089H33.1025C34.0622 23.8827 35.0348 23.7149 36.0146 23.606H36.0156C36.8673 23.5142 37.3304 23.5016 37.7861 23.4165C38.2134 23.3368 38.6257 23.1907 39.3262 22.8452C39.3376 22.0764 39.3672 21.308 39.4121 20.5405C38.83 21.3463 38.3233 22.0211 37.2949 22.5454C34.6419 23.8977 31.1857 22.8755 30.0186 20.0464C29.5476 20.812 29.1704 21.3769 28.3633 22.02C25.9598 23.935 22.1273 23.3348 20.5469 20.6597C20.459 20.5108 20.3671 20.291 20.2881 20.0952C19.6522 21.0614 19.1193 21.8113 18.0166 22.4233H18.0156C15.2333 23.9666 11.7982 22.9591 10.5449 20.0552C9.98137 20.9194 9.6336 21.4381 9.18555 21.8296C8.69408 22.259 8.08929 22.5315 6.98145 22.9653L6.9707 22.9692L6.95898 22.9722C5.46681 23.3047 4.29032 23.1766 3.27441 22.6753C2.38962 22.2386 1.6393 21.5243 0.911133 20.6138C1.03332 22.233 1.0295 24.0273 1.00195 25.8247C0.97146 27.8144 0.91369 29.8069 0.97168 31.5854C1.00335 32.5582 0.97064 33.5489 0.986328 34.5015C1.00221 35.4652 1.0673 36.4222 1.29492 37.3862C2.27244 41.4086 4.2241 44.4032 7.33496 47.0747C12.2231 51.2724 16.1656 50.5807 22.0654 50.7036C25.6919 50.7791 28.7961 50.8187 31.6221 50.0806C34.4392 49.3447 36.9863 47.8333 39.4873 44.7896C40.5881 43.4498 41.397 41.9989 42.1289 40.4937C42.856 38.9982 43.5192 37.4221 44.3066 35.8833C47.0029 30.3324 49.8321 26.0544 54.2344 21.6792C55.1425 20.7766 56.2877 19.7653 57.1826 18.645C58.077 17.5253 58.6924 16.3292 58.5713 15.0728V15.0718C58.494 14.1996 58.0932 13.3904 57.4512 12.8013L57.3193 12.686ZM17.8564 1.68701C16.8579 1.08999 15.6559 0.775441 14.751 0.95752L14.7393 0.960449V0.959473C13.0204 1.16503 11.4075 2.42652 11.0342 4.16846C10.8299 5.12171 10.7863 6.10857 10.7852 7.10889C10.784 8.1012 10.8245 9.11938 10.7881 10.1069H10.7891C10.7896 12.8231 10.6414 15.7687 10.7881 18.4604C10.9351 21.1562 13.4232 22.8738 16.0332 22.5151C16.7826 22.3713 17.6659 21.9229 18.3838 21.2964C19.1055 20.6665 19.638 19.876 19.7188 19.064L19.7285 18.9067C19.8721 14.0397 19.9877 8.81757 19.6572 3.9751C19.5998 3.13589 18.8596 2.28686 17.8564 1.68701ZM8.21094 1.71924C7.3378 1.13277 6.00081 0.734576 4.97168 0.965332L4.96094 0.967285L4.95117 0.968262C4.08857 1.04134 3.16055 1.46655 2.43262 2.09717C1.70425 2.72828 1.19354 3.54938 1.13281 4.40088C0.805106 8.99525 0.980754 13.8454 1.03516 18.4673C1.04903 19.6429 1.73324 20.6844 2.71289 21.3979C3.6929 22.1117 4.94866 22.4818 6.07031 22.3306L6.1416 22.3208C7.52744 22.093 8.52372 21.5928 9.36133 20.4282C9.475 20.2702 9.62166 20.0399 9.74023 19.7993C9.86098 19.5544 9.94304 19.3172 9.94824 19.1401C10.0766 14.7543 10.1154 10.2945 9.99121 5.89404L9.92773 4.01123L9.91211 3.88232C9.88563 3.74763 9.82748 3.59448 9.74121 3.4292C9.62719 3.21079 9.46979 2.98157 9.29199 2.76025C8.93503 2.31591 8.50759 1.91855 8.21094 1.71924ZM36.9072 1.41553C36.0694 0.986115 35.1169 0.830254 34.1855 0.968262L34.1787 0.969238C32.8167 1.10207 31.9256 1.64602 31.3389 2.43506C30.7475 3.23055 30.4542 4.28981 30.3213 5.46924C30.1886 6.64771 30.2181 7.92925 30.2598 9.15967C30.3012 10.3843 30.3549 11.5649 30.2666 12.52C30.2193 13.0311 30.2371 13.5978 30.2588 14.1782C30.2804 14.7547 30.3056 15.3455 30.2695 15.8882V15.8921C30.1113 17.6201 30.3801 19.3429 31.2051 20.5708C32.0223 21.7871 33.3989 22.5391 35.5146 22.314L35.8037 22.2729C37.8037 21.6963 39.2259 20.2846 39.2861 18.1812C39.4082 13.9155 39.3736 9.57765 39.3076 5.30615C39.2817 3.62722 38.4138 2.18313 36.9072 1.4165V1.41553ZM27.3438 1.49268C26.5572 0.999351 25.3783 0.801115 24.4609 0.961426L24.4521 0.963379V0.962402C23.6906 1.04823 22.7781 1.47646 22.04 2.08936C21.2997 2.70419 20.7643 3.48023 20.71 4.24463C20.5533 6.44831 20.6361 8.83418 20.6367 11.0708L20.6396 16.1831L20.6357 16.9995C20.6301 17.7902 20.6338 18.5067 20.7822 19.1714C20.9768 20.0421 21.4203 20.8198 22.4443 21.5171C23.4772 22.2203 24.6109 22.4363 25.8457 22.2935C26.6552 22.1108 27.518 21.7084 28.1992 21.1421C28.883 20.5737 29.3717 19.8519 29.46 19.0356L29.4727 18.8706C29.6558 14.6152 29.4669 10.2641 29.5371 5.98584C29.5548 4.90257 29.4783 4.08632 29.167 3.39014C28.8573 2.69806 28.3076 2.10603 27.3438 1.49268Z" fill="black" stroke="black" stroke-width="0.3"/>
</svg>
