<svg width="55" height="64" viewBox="0 0 55 64" fill="none" xmlns="http://www.w3.org/2000/svg">
<path d="M27.6289 24.7764L27.6143 27.1641C27.6136 27.9695 27.6256 28.7688 27.6777 29.5137L27.6895 29.5879C27.6907 29.5893 27.6943 29.5915 27.7002 29.5967C27.7039 29.5727 27.7105 29.547 27.7139 29.5186C27.7338 29.3505 27.7441 29.1385 27.748 28.9092C27.752 28.6816 27.7503 28.4466 27.7471 28.2354C27.744 28.03 27.7391 27.8349 27.7402 27.7051C27.7938 21.3912 27.644 14.9783 27.7549 8.64355C27.7643 8.1051 27.9955 7.61692 28.2705 7.22168C28.5447 6.82767 28.8888 6.48749 29.1934 6.22754C30.277 5.2478 31.5777 5.03551 32.8281 5.08398C33.542 5.11172 34.3779 5.45771 35.0537 5.93164C35.7199 6.39893 36.3539 7.07837 36.5029 7.86328C36.9315 10.1196 36.7528 13.4249 36.7432 15.6035L36.707 27.2305C36.7039 28.8943 36.7171 30.5581 36.748 32.2217L36.7852 33.8857V33.8896C36.8034 34.9222 36.8926 36.739 36.7764 37.8037L36.7578 37.9678L36.6465 38.0889C35.7543 39.0525 34.7084 39.5327 33.6279 39.833C33.0916 39.9821 32.5409 40.0879 31.998 40.1855C31.4497 40.2842 30.9143 40.3728 30.375 40.4902C29.4726 40.693 28.5908 40.9772 27.7402 41.3379L27.7393 41.3389C24.571 42.674 21.0796 45.4369 19.8779 48.6113C19.7371 48.9834 19.6784 49.1779 19.7119 49.3652C19.7359 49.33 19.7632 49.2904 19.791 49.2441C19.9124 49.0424 20.0358 48.7875 20.1611 48.5078C20.2902 48.2198 20.401 47.9523 20.5225 47.6758C20.6347 47.4204 20.7541 47.1614 20.873 46.9746C21.7131 45.6169 23.2338 44.2093 24.8848 43.0752C26.5384 41.9392 28.39 41.0312 29.9238 40.7266C32.406 40.2337 33.838 39.9729 35.0459 39.3535C36.2274 38.7475 37.2257 37.7773 38.7363 35.7627L38.75 35.7441L38.7666 35.7266C41.2413 33.0047 44.2582 30.5148 47.8193 29.2715C49.9071 28.5427 52.014 29.1146 53.292 30.4004C54.5921 31.7087 55.0014 33.7295 53.7236 35.7314C53.0961 36.7145 52.108 37.5281 51.1494 38.2852C50.1646 39.0629 49.2025 39.7872 48.4854 40.6328C45.6068 44.0275 43.3602 47.7788 41.082 51.6562C39.1898 54.9252 37.5389 57.8746 35.2539 59.9971C32.9355 62.1506 29.9889 63.4389 25.5518 63.4883H25.5469L19.1748 63.4971L19.1758 63.498C13.6921 63.5191 9.32992 63.4028 5.04785 59.1709C1.07443 55.2439 0.604811 51.0345 0.556641 46.0273V46.0225L0.538086 26.0576L0.529297 19.9375V19.9365C0.529997 18.946 0.444574 17.7638 0.5625 16.6904C0.683701 15.5879 1.02387 14.4888 1.93262 13.6113C2.84333 12.732 3.8718 12.2552 4.93945 12.2656C6.00663 12.2762 7.02959 12.773 7.93262 13.6729C8.49295 14.2313 8.94339 14.7906 9.14844 15.6475L9.18652 15.8232L9.19043 15.8486C9.43989 17.6664 9.3324 19.6543 9.31738 21.415L9.24023 30.6982L9.44531 30.6943C9.48619 30.1594 9.49608 29.3588 9.49121 28.5039C9.48514 27.4398 9.457 26.264 9.45605 25.6572L9.39453 12.6328V12.6309C9.39013 10.6147 9.21338 8.22011 10.9678 6.375L11.1611 6.18652C12.1579 5.28971 13.5911 5.04422 14.8652 5.27539C16.2228 5.52174 17.5445 6.33778 18.0449 7.69238C18.4185 8.70379 18.5097 10.0283 18.5166 11.3096C18.5201 11.958 18.5019 12.6124 18.4824 13.2285C18.4629 13.8482 18.4423 14.4252 18.4404 14.9355L18.4453 24.8828L18.4287 25.9951C18.4209 26.4762 18.4146 27.0439 18.4199 27.627C18.4251 28.1919 18.442 28.7313 18.4795 29.1494C18.4823 29.1812 18.4862 29.2124 18.4893 29.2422C18.5841 27.8321 18.5414 26.394 18.5391 24.9346L18.5371 11.9502L18.5254 9.5166C18.5201 8.70106 18.5156 7.88421 18.5176 7.07617C18.5207 5.78352 18.5755 4.33379 19.0625 3.12402C19.5682 1.8682 20.5351 0.882909 22.2715 0.550781L22.293 0.546875L22.3154 0.544922C23.3661 0.437977 24.4421 0.484894 25.4414 1.10742L25.6396 1.24023L25.6436 1.24219C26.4654 1.83639 27.0585 2.69229 27.3242 3.66797L27.3252 3.67188C27.4337 4.08325 27.5 4.69281 27.543 5.36816C27.5866 6.05398 27.6082 6.8445 27.6182 7.6377C27.6379 9.21588 27.6113 10.8539 27.6133 11.6904V11.6914L27.6289 24.7764Z" stroke="black"/>
</svg>
