<svg width="48" height="64" viewBox="0 0 48 64" fill="none" xmlns="http://www.w3.org/2000/svg">
<path d="M30.6904 0.522461C32.0713 0.414078 33.1528 0.710398 33.9902 1.32227C34.8187 1.92755 35.3566 2.80366 35.7285 3.76074C36.0999 4.71661 36.3197 5.78974 36.4893 6.82715C36.6631 7.89121 36.7782 8.873 36.9502 9.76855C37.9701 15.0798 39.0776 20.3732 39.9414 25.7354C40.1457 27.0038 40.4333 28.7061 40.7949 29.8643L41.0078 30.5469C40.7967 28.2978 40.2361 26.4597 39.79 24.165C39.2178 21.2215 38.6992 18.1914 38.2305 15.2285C37.9651 13.5514 37.7451 11.3789 37.8525 9.64648C37.8717 9.33837 37.9683 8.94764 38.083 8.59766C38.1985 8.24539 38.3499 7.88032 38.5039 7.62402C38.8786 7.00067 39.2345 6.4845 39.6924 6.07227C40.1591 5.65207 40.7062 5.3628 41.4346 5.14355L41.498 5.125L41.5635 5.12305C42.6742 5.08983 43.8503 5.3251 44.7764 5.90137C45.7201 6.48873 46.3997 7.43213 46.4463 8.74609C46.5934 12.8956 46.5674 17.1043 46.5312 21.3008C46.4951 25.5008 46.4487 29.688 46.5547 33.8115L46.5898 35.1475L45.6865 34.1621C45.1233 33.5475 44.7838 33.3274 44.0596 32.8398C43.1437 32.2799 42.2184 31.7351 41.2842 31.2061L41.1982 31.1572L41.2109 31.1973C42.7405 32.0954 44.1981 33.0029 45.3096 34.1357C46.8862 35.7426 47.7794 37.8022 47.4229 40.8887C47.0072 44.4874 46.4716 48.0011 45.8066 51.5498C45.1479 55.0643 43.463 57.1656 41.2119 58.6328C39.0055 60.0709 36.2371 60.9042 33.4795 61.9023C27.8149 64.0145 22.544 64.3997 17.2559 60.7822V60.7812C14.5571 58.9399 13.1832 56.5612 11.3789 54.1699C9.33831 51.5115 7.66322 48.932 5.86523 46.1514L5.85938 46.1416C5.07408 44.8658 4.34257 43.4719 3.60352 42.1816L3.59473 42.166L3.58691 42.1504C3.42869 41.822 3.17803 41.4138 2.87305 40.9434C2.5763 40.4856 2.22268 39.9601 1.89648 39.4453C1.56705 38.9254 1.24595 38.3862 0.99707 37.8682C0.751338 37.3567 0.556839 36.8291 0.512695 36.3379C0.352557 34.5548 1.75131 33.4863 3.19824 33.0312C3.93896 32.7984 4.74722 32.7014 5.49805 32.7393C6.24243 32.7768 6.97127 32.9494 7.5293 33.292C9.1823 34.3067 10.4002 35.6524 11.4658 37.0801C11.9975 37.7924 12.4962 38.5323 12.9902 39.2617C13.4867 39.9947 13.9793 40.7187 14.5078 41.417C15.3487 42.5279 15.8391 43.4032 16.834 44.1113C18.8971 45.4262 21.9316 44.9457 24.4258 43.374C26.9262 41.7983 28.615 39.2976 28.2051 36.8828C28.013 35.7523 27.2019 34.7658 26.1104 33.8643C25.014 32.9587 23.7564 32.2297 22.7246 31.5293C22.2214 31.1877 21.7161 30.7598 21.2256 30.3496C20.7258 29.9317 20.2339 29.5263 19.7275 29.1924C18.7193 28.5275 17.7404 28.2029 16.6543 28.6123L16.6348 28.6201L16.6133 28.626C15.8154 28.8502 14.9385 29.1943 13.9922 29.5645C13.0558 29.9308 12.0582 30.3196 11.0566 30.6104C9.06641 31.188 6.92811 31.4193 5.0918 30.209C3.79867 29.3566 2.96854 28.1721 2.9375 26.9355C2.90565 25.6583 3.72668 24.5273 5.30273 23.8232C7.54682 22.8209 9.99314 22.0724 12.252 21.2402L12.2539 21.2393C13.2959 20.8607 14.2933 20.3998 15.3613 19.958C16.4129 19.523 17.5053 19.1201 18.6582 18.9004L18.6816 18.8955L18.7051 18.8936C19.9914 18.7726 20.8802 19.0542 21.6855 19.5127C22.0736 19.7336 22.4429 19.9962 22.8105 20.2539C23.184 20.5157 23.5674 20.7816 24.0117 21.0361C25.1168 21.669 26.1979 22.3408 27.2686 23.0088C28.3402 23.6774 29.401 24.342 30.4805 24.9688C32.739 26.251 34.99 27.5478 37.2314 28.8594L39.4697 30.1758L39.4717 30.1768C39.8304 30.3906 40.1912 30.5997 40.5498 30.8086L40.0195 30.415C39.2304 29.8288 38.6732 29.5371 37.7627 29.0518C35.4563 27.8976 32.1171 25.7529 29.9033 24.3955L29.6738 24.2549L29.665 23.9863C29.5977 21.9235 29.0721 19.3401 28.6865 17.2266V17.2275L26.8096 7.25586C26.5304 5.77067 26.5359 4.26157 27.1035 3.02441C27.6869 1.75298 28.8297 0.84463 30.6436 0.52832L30.667 0.523438L30.6904 0.522461Z" stroke="black"/>
</svg>
