<svg width="594" height="482" viewBox="0 0 594 482" fill="none" xmlns="http://www.w3.org/2000/svg">
<path d="M539.101 0.24808C549.177 -0.460721 557.276 0.175579 566.684 4.45171C576.143 8.62449 586.166 18.2462 589.777 28.041C591.349 32.3038 592.175 43.6533 592.958 48.6178C593.83 54.169 592.778 70.5353 590.56 75.8806C582.174 96.0838 565.776 112.717 553.783 130.846C537.999 155.026 523.324 181.296 511.255 207.458C497.596 237.265 485.732 268.465 477.249 300.122C467.162 337.766 464.915 384.823 428.217 407.716C415.499 415.651 401.955 419.226 387.994 424.107C377.419 427.803 366.728 431.812 356.254 435.799L290.517 461.438C278.598 466.164 266.565 470.593 254.677 475.391C253.003 476.07 249.76 475.732 247.835 476.436C245.683 477.222 243.794 478.69 241.677 479.555C225.808 481.604 205.6 481.647 189.86 480.172C184.267 478.431 175.999 475.309 170.967 472.668C120.925 446.383 98.9702 383.466 81.6242 334.277L55.8556 259.51C48.5921 240.436 42.8298 220.425 35.6076 201.275C33.6214 195.494 31.4787 189.662 29.3561 183.94C16.8031 150.102 -4.1549 116.996 0.722487 79.44C2.28259 67.4245 15.2211 54.4159 25.0193 48.0873C36.9703 40.3964 51.5109 37.8289 65.3741 40.962C97.8042 48.1562 103.737 80.6322 112.906 107.674C114.834 113.362 116.701 121.238 119.96 126.139C127.054 120.79 131.555 112.87 138.951 107.409C144.849 103.053 148.342 99.6952 155.741 97.4813C167.497 93.9635 179.578 95.3875 190.652 100.478C195.069 102.535 199.335 105.049 203.699 107.294C206.66 101.636 206.732 95.8896 210.75 89.7666C217.834 78.6921 230.99 69.2143 244.033 66.4272C261.397 62.717 275.609 65.2525 290.503 74.4766C293.408 70.7575 294.876 66.4286 296.937 62.1707C302.372 50.9394 310.456 41.2143 322.216 36.2602C334.374 31.1385 349.875 29.9215 362.353 34.8125C392.736 47.5106 402.859 94.6238 412.867 122.744C415.876 131.189 419.006 138.474 422.491 146.457C426.738 142.543 431.179 130.694 434.151 124.782C437.217 118.666 440.48 112.651 443.94 106.749C453.414 90.6778 463.964 75.5059 474.216 59.9564C490.223 35.6763 506.459 3.23545 539.101 0.24808ZM341.256 215.86C338.531 224.226 338.075 229.666 332.863 237.161C319.118 256.93 290.372 264.815 268.09 256.338C263.403 254.554 258.629 251.848 254.338 248.973C252.804 253.025 252.037 256.991 250.601 261.007C240.565 289.05 208.363 296.58 182.569 287.173C154.577 276.963 146.137 246.49 137.949 220.69L124.134 175.942C121.617 167.94 118.678 159.919 115.743 152.039C106.418 127.004 98.4594 101.077 88.0118 76.5248C83.918 66.9048 78.1716 59.5954 68.2861 55.9315C49.2896 48.1885 22.2035 59.2799 14.8187 78.5475C11.0692 88.3307 12.2721 100.488 15.6016 110.259C25.9419 140.605 37.1652 170.703 47.5105 201.061C48.95 205.285 50.4336 209.805 52.0942 213.908C56.6284 226.12 60.8485 239.14 65.1595 251.5L84.2745 305.925C102.766 359.557 130.182 453.173 197.382 468.741C202.096 469.836 225.497 469.341 230.516 468.691C234.668 468.192 238.743 467.18 242.647 465.684C256.421 460.462 269.37 453.492 283.529 448.55C315.083 437.339 347.344 427.627 378.607 415.655C391.695 410.641 410.218 405.516 421.407 397.255C451.059 375.352 455.786 327.742 464.603 294.983C472.949 265.07 483.664 235.868 496.645 207.655C504.291 191.182 512.619 175.036 521.611 159.258C527.872 148.116 534.42 136.938 541.405 126.246C552.853 108.729 567.514 94.3331 576.549 75.1983C590.452 45.7524 575.289 9.42338 539.015 13.889C525.14 15.1932 514.845 24.2353 506.438 34.6965C493.92 50.2697 483.851 68.9361 473.301 85.9983C462.172 103.904 451.382 122.018 440.943 140.333C436.94 147.396 432.884 154.532 429.197 161.752C427.366 165.334 427.826 171.611 427.998 175.615C429.764 217.286 381.992 239.58 347.836 220.079C345.7 218.86 343.129 217.421 341.256 215.86ZM376.223 213.743C387.865 213.617 396.886 210.673 405.024 202.206C416.69 190.069 417.502 173.942 412.591 158.736C407.827 143.984 401.021 130.706 395.791 116.477C393.357 109.741 391.056 102.958 388.884 96.1318C384.444 81.8804 379.888 65.536 369.026 54.6535C362.381 47.9987 354.423 46.1285 345.215 46.1917C320.805 47.6351 303.219 59.1335 305.365 85.5913C307.408 110.795 319.057 133.106 327.18 156.681C331.294 168.484 334.744 180.337 340.426 191.498C348.439 207.241 358.705 213.678 376.223 213.743ZM290.199 246.763C309.827 246.526 330.321 225.788 328.67 205.546C326.886 183.721 315.122 164.553 307.325 144.463C297.633 119.917 293.76 77.7597 259 78.3856C258.53 78.3939 258.637 78.3989 258.13 78.5001C247.297 79.112 235.262 82.4138 227.869 90.7597C220.439 99.1469 219.005 109.358 219.96 120.3C222.032 142.67 232.011 163.537 238.775 184.75C243.085 198.27 247.25 211.765 252.846 224.798C259.627 240.591 272.42 247.997 289.39 246.827C289.659 246.806 289.93 246.784 290.199 246.763ZM203.434 279.554C216.207 277.76 226.362 273.697 234.428 262.852C253.767 236.85 229.803 204.621 221.535 178.922C216.384 162.912 212.108 147.856 205.3 132.736C202.506 126.946 198.541 121.096 193.412 117.133C187.638 112.673 178.069 109.476 170.751 110.78C145.606 113.37 128.71 123.429 132.522 151.616C135.63 174.588 146.22 195.065 153.092 217.001C162.523 244.548 166.022 280.609 203.434 279.554Z" fill="black"/>
</svg>
